<svg width="351" height="48" viewBox="0 0 351 48" fill="none" xmlns="http://www.w3.org/2000/svg">
<path d="M0.8 37V2H16.15C18.35 2 20.35 2.48333 22.15 3.45C23.95 4.38333 25.3833 5.71667 26.45 7.45C27.5167 9.15 28.05 11.15 28.05 13.45C28.05 15.7833 27.45 17.85 26.25 19.65C25.0833 21.4167 23.5 22.7333 21.5 23.6L25.25 31.2C25.5167 31.7333 25.8 32.1333 26.1 32.4C26.4333 32.6333 26.9 32.75 27.5 32.75H30V37H26.75C25.45 37 24.3 36.6667 23.3 36C22.3333 35.3333 21.5333 34.4333 20.9 33.3L16.7 24.75C16.3667 24.7833 16 24.8167 15.6 24.85C15.2333 24.85 14.85 24.85 14.45 24.85H5.6V37H0.8ZM5.6 20.6H15.5C16.9333 20.6 18.2333 20.3167 19.4 19.75C20.6 19.1833 21.5333 18.3667 22.2 17.3C22.9 16.2333 23.25 14.95 23.25 13.45C23.25 11.9167 22.9 10.6167 22.2 9.55C21.5 8.48333 20.5667 7.66666 19.4 7.1C18.2333 6.53333 16.95 6.25 15.55 6.25H5.6V20.6ZM46.5102 37C43.7102 37 41.2268 36.4833 39.0602 35.45C36.8935 34.3833 35.1935 32.9 33.9602 31C32.7602 29.0667 32.1602 26.8167 32.1602 24.25C32.1602 21.7167 32.6768 19.45 33.7102 17.45C34.7435 15.4167 36.1768 13.8167 38.0102 12.65C39.8435 11.4833 41.9768 10.9 44.4102 10.9C47.0435 10.9 49.2268 11.4667 50.9602 12.6C52.7268 13.7333 54.0435 15.2667 54.9102 17.2C55.7768 19.1 56.2102 21.2333 56.2102 23.6C56.2102 23.9667 56.1935 24.35 56.1602 24.75C56.1602 25.15 56.1268 25.5 56.0602 25.8H37.0602C37.2268 27.3667 37.7435 28.7 38.6102 29.8C39.4768 30.8667 40.5768 31.6833 41.9102 32.25C43.2768 32.7833 44.7768 33.05 46.4102 33.05H53.0602V37H46.5102ZM37.0102 22.55H51.5602C51.5602 21.9167 51.4935 21.25 51.3602 20.55C51.2268 19.8167 50.9935 19.1167 50.6602 18.45C50.3268 17.75 49.8768 17.1333 49.3102 16.6C48.7768 16.0333 48.0935 15.5833 47.2602 15.25C46.4602 14.9167 45.5102 14.75 44.4102 14.75C43.2435 14.75 42.2102 14.9833 41.3102 15.45C40.4435 15.8833 39.6935 16.4833 39.0602 17.25C38.4268 17.9833 37.9435 18.8167 37.6102 19.75C37.2768 20.6833 37.0768 21.6167 37.0102 22.55ZM72.6758 37.6C70.2091 37.6 68.0758 37.0167 66.2758 35.85C64.4758 34.65 63.0924 33.0333 62.1258 31C61.1591 28.9667 60.6758 26.7167 60.6758 24.25C60.6758 21.75 61.2091 19.5 62.2758 17.5C63.3424 15.4667 64.8758 13.8667 66.8758 12.7C68.8758 11.5 71.2758 10.9 74.0758 10.9C76.7758 10.9 79.0924 11.4833 81.0258 12.65C82.9591 13.8167 84.4424 15.4 85.4758 17.4C86.5424 19.4 87.0758 21.6333 87.0758 24.1V37H82.4258V31.8H82.3258C81.8258 32.7667 81.1424 33.7 80.2758 34.6C79.4424 35.4667 78.3924 36.1833 77.1258 36.75C75.8591 37.3167 74.3758 37.6 72.6758 37.6ZM73.8758 33.65C75.5424 33.65 77.0091 33.25 78.2758 32.45C79.5758 31.6167 80.5758 30.4833 81.2758 29.05C82.0091 27.5833 82.3758 25.95 82.3758 24.15C82.3758 22.3833 82.0258 20.8 81.3258 19.4C80.6591 18 79.6924 16.9 78.4258 16.1C77.1591 15.2667 75.6758 14.85 73.9758 14.85C72.1758 14.85 70.6258 15.2667 69.3258 16.1C68.0591 16.9333 67.0758 18.0667 66.3758 19.5C65.7091 20.9 65.3758 22.5 65.3758 24.3C65.3758 26.0333 65.7091 27.6167 66.3758 29.05C67.0424 30.45 68.0091 31.5667 69.2758 32.4C70.5424 33.2333 72.0758 33.65 73.8758 33.65ZM106.15 37.6C104.217 37.6 102.45 37.3 100.85 36.7C99.25 36.0667 97.8667 35.15 96.7 33.95C95.5333 32.75 94.6167 31.3167 93.95 29.65C93.3167 27.95 93 26.05 93 23.95C93 21.2833 93.5333 18.9833 94.6 17.05C95.7 15.0833 97.1833 13.5667 99.05 12.5C100.95 11.4333 103.067 10.9 105.4 10.9C106.7 10.9 107.933 11.1167 109.1 11.55C110.3 11.9833 111.367 12.5833 112.3 13.35C113.233 14.1167 113.967 15.0167 114.5 16.05H114.6V0.499999H119.2V24.1C119.2 26.9333 118.617 29.3667 117.45 31.4C116.317 33.4 114.767 34.9333 112.8 36C110.867 37.0667 108.65 37.6 106.15 37.6ZM106.15 33.65C107.717 33.65 109.133 33.2667 110.4 32.5C111.667 31.7333 112.667 30.65 113.4 29.25C114.167 27.85 114.55 26.2 114.55 24.3C114.55 22.3667 114.167 20.7 113.4 19.3C112.667 17.8667 111.667 16.7667 110.4 16C109.133 15.2333 107.7 14.85 106.1 14.85C104.533 14.85 103.1 15.25 101.8 16.05C100.533 16.85 99.5167 17.95 98.75 19.35C98.0167 20.75 97.65 22.3833 97.65 24.25C97.65 26.1833 98.0333 27.85 98.8 29.25C99.5667 30.65 100.583 31.7333 101.85 32.5C103.15 33.2667 104.583 33.65 106.15 33.65ZM135.984 47.15V37.4C134.117 37.1333 132.45 36.5167 130.984 35.55C129.55 34.55 128.417 33.2667 127.584 31.7C126.75 30.1 126.334 28.2833 126.334 26.25V11.5H130.984V26.2C130.984 27.7333 131.317 29.0667 131.984 30.2C132.65 31.3 133.534 32.15 134.634 32.75C135.767 33.35 136.967 33.65 138.234 33.65C139.534 33.65 140.734 33.35 141.834 32.75C142.967 32.15 143.867 31.3 144.534 30.2C145.234 29.0667 145.584 27.7333 145.584 26.2V11.5H150.184V26.25C150.184 28.2833 149.767 30.0833 148.934 31.65C148.134 33.2167 147 34.5 145.534 35.5C144.1 36.4667 142.45 37.1 140.584 37.4V47.15H135.984ZM170.718 37V32.75H185.868C187.035 32.75 188.035 32.4833 188.868 31.95C189.702 31.3833 190.352 30.6667 190.818 29.8C191.285 28.9333 191.518 28.0167 191.518 27.05C191.518 26.05 191.285 25.1333 190.818 24.3C190.385 23.4333 189.752 22.75 188.918 22.25C188.118 21.7167 187.135 21.45 185.968 21.45H179.368C177.402 21.45 175.668 21.05 174.168 20.25C172.668 19.4167 171.485 18.2833 170.618 16.85C169.785 15.3833 169.368 13.7333 169.368 11.9C169.368 10.0333 169.768 8.35 170.568 6.85C171.402 5.35 172.552 4.16667 174.018 3.3C175.518 2.43333 177.235 2 179.168 2H194.018V6.25H179.618C178.518 6.25 177.552 6.51667 176.718 7.05C175.885 7.55 175.252 8.21666 174.818 9.05C174.385 9.85 174.168 10.7167 174.168 11.65C174.168 12.55 174.368 13.4167 174.768 14.25C175.202 15.05 175.818 15.7 176.618 16.2C177.452 16.7 178.402 16.95 179.468 16.95H186.218C188.318 16.95 190.118 17.3667 191.618 18.2C193.118 19.0333 194.268 20.1667 195.068 21.6C195.868 23.0333 196.268 24.6667 196.268 26.5C196.268 28.5333 195.852 30.35 195.018 31.95C194.218 33.5167 193.068 34.75 191.568 35.65C190.068 36.55 188.352 37 186.418 37H170.718ZM215.016 37C212.216 37 209.733 36.4833 207.566 35.45C205.399 34.3833 203.699 32.9 202.466 31C201.266 29.0667 200.666 26.8167 200.666 24.25C200.666 21.7167 201.183 19.45 202.216 17.45C203.249 15.4167 204.683 13.8167 206.516 12.65C208.349 11.4833 210.483 10.9 212.916 10.9C215.549 10.9 217.733 11.4667 219.466 12.6C221.233 13.7333 222.549 15.2667 223.416 17.2C224.283 19.1 224.716 21.2333 224.716 23.6C224.716 23.9667 224.699 24.35 224.666 24.75C224.666 25.15 224.633 25.5 224.566 25.8H205.566C205.733 27.3667 206.249 28.7 207.116 29.8C207.983 30.8667 209.083 31.6833 210.416 32.25C211.783 32.7833 213.283 33.05 214.916 33.05H221.566V37H215.016ZM205.516 22.55H220.066C220.066 21.9167 219.999 21.25 219.866 20.55C219.733 19.8167 219.499 19.1167 219.166 18.45C218.833 17.75 218.383 17.1333 217.816 16.6C217.283 16.0333 216.599 15.5833 215.766 15.25C214.966 14.9167 214.016 14.75 212.916 14.75C211.749 14.75 210.716 14.9833 209.816 15.45C208.949 15.8833 208.199 16.4833 207.566 17.25C206.933 17.9833 206.449 18.8167 206.116 19.75C205.783 20.6833 205.583 21.6167 205.516 22.55ZM239.282 37C237.015 37 235.232 36.35 233.932 35.05C232.665 33.75 232.032 31.9833 232.032 29.75V5.1H236.632V29.45C236.632 30.55 236.932 31.4333 237.532 32.1C238.165 32.7333 239.032 33.05 240.132 33.05H245.282V37H239.282ZM227.632 15.45V11.5H245.382V15.45H227.632ZM264.325 37V2H269.125V17.05H287.575V2H292.375V37H287.575V21.3H269.125V37H264.325ZM299.82 37V11.5H304.47V37H299.82ZM302.17 7.45C301.337 7.45 300.603 7.15 299.97 6.55C299.37 5.91667 299.07 5.18333 299.07 4.35C299.07 3.51666 299.37 2.8 299.97 2.2C300.603 1.56666 301.337 1.25 302.17 1.25C303.003 1.25 303.72 1.56666 304.32 2.2C304.953 2.8 305.27 3.51666 305.27 4.35C305.27 5.18333 304.953 5.91667 304.32 6.55C303.72 7.15 303.003 7.45 302.17 7.45ZM311.584 37V18.75C311.584 16.4833 312.217 14.7167 313.484 13.45C314.784 12.15 316.567 11.5 318.834 11.5H324.084V15.45H319.684C318.584 15.45 317.717 15.7667 317.084 16.4C316.484 17.0333 316.184 17.9167 316.184 19.05V37H311.584ZM341.286 37C338.486 37 336.002 36.4833 333.836 35.45C331.669 34.3833 329.969 32.9 328.736 31C327.536 29.0667 326.936 26.8167 326.936 24.25C326.936 21.7167 327.452 19.45 328.486 17.45C329.519 15.4167 330.952 13.8167 332.786 12.65C334.619 11.4833 336.752 10.9 339.186 10.9C341.819 10.9 344.002 11.4667 345.736 12.6C347.502 13.7333 348.819 15.2667 349.686 17.2C350.552 19.1 350.986 21.2333 350.986 23.6C350.986 23.9667 350.969 24.35 350.936 24.75C350.936 25.15 350.902 25.5 350.836 25.8H331.836C332.002 27.3667 332.519 28.7 333.386 29.8C334.252 30.8667 335.352 31.6833 336.686 32.25C338.052 32.7833 339.552 33.05 341.186 33.05H347.836V37H341.286ZM331.786 22.55H346.336C346.336 21.9167 346.269 21.25 346.136 20.55C346.002 19.8167 345.769 19.1167 345.436 18.45C345.102 17.75 344.652 17.1333 344.086 16.6C343.552 16.0333 342.869 15.5833 342.036 15.25C341.236 14.9167 340.286 14.75 339.186 14.75C338.019 14.75 336.986 14.9833 336.086 15.45C335.219 15.8833 334.469 16.4833 333.836 17.25C333.202 17.9833 332.719 18.8167 332.386 19.75C332.052 20.6833 331.852 21.6167 331.786 22.55Z" fill="white"/>
</svg>
